<svg width="104" height="104" viewBox="0 0 104 104" fill="none" xmlns="http://www.w3.org/2000/svg">
<g clip-path="url(#clip0)">
<path d="M88.7696 15.2304C78.9482 5.409 65.8895 0 52 0C38.1105 0 25.0518 5.409 15.2304 15.2304C5.409 25.0518 0 38.1105 0 52C0 65.8895 5.409 78.9482 15.2304 88.7696C25.0518 98.591 38.1105 104 52 104C65.8895 104 78.9482 98.591 88.7696 88.7696C98.591 78.9482 104 65.8895 104 52C104 38.1105 98.591 25.0518 88.7696 15.2304V15.2304ZM31.1186 42.4674C31.1186 39.561 33.4839 37.1965 36.3903 37.1965C39.2968 37.1965 41.6613 39.561 41.6613 42.4674C41.6613 45.3738 39.2968 47.7383 36.3903 47.7383C33.4839 47.7383 31.1186 45.3738 31.1186 42.4674ZM69.0046 76.64C68.5253 76.9161 68.0016 77.0479 67.4859 77.0479C66.4322 77.0479 65.407 76.5004 64.8429 75.522C62.1975 70.9319 57.2686 68.0802 51.9778 68.0802C46.6973 68.0802 41.7723 70.924 39.1254 75.5006C38.2827 76.9574 36.4181 77.4549 34.9621 76.6122C33.5053 75.7696 33.0078 73.9058 33.8505 72.449C37.5837 65.9958 44.5296 61.9865 51.9778 61.9865C59.4402 61.9865 66.3925 66.0069 70.1226 72.4783C70.9628 73.9367 70.4622 75.7997 69.0046 76.64V76.64ZM67.5811 47.7383C64.6739 47.7383 62.3094 45.3738 62.3094 42.4674C62.3094 39.561 64.6739 37.1965 67.5811 37.1965C70.4868 37.1965 72.8513 39.561 72.8513 42.4674C72.8521 45.3738 70.4868 47.7383 67.5811 47.7383Z" fill="#CAC6EB"/>
</g>
<defs>
<clipPath id="clip0">
<rect width="104" height="104" fill="white"/>
</clipPath>
</defs>
</svg>
