<svg width="512" height="512" viewBox="0 0 512 512" fill="none" xmlns="http://www.w3.org/2000/svg">
<g clip-path="url(#clip0)">
<path d="M437.02 74.9805C388.668 26.6289 324.379 0 256 0C187.621 0 123.332 26.6289 74.9805 74.9805C26.6289 123.332 0 187.621 0 256C0 324.379 26.6289 388.668 74.9805 437.02C123.332 485.371 187.621 512 256 512C324.379 512 388.668 485.371 437.02 437.02C485.371 388.668 512 324.379 512 256C512 187.621 485.371 123.332 437.02 74.9805V74.9805ZM153.199 209.07C153.199 194.762 164.844 183.121 179.152 183.121C193.461 183.121 205.102 194.762 205.102 209.07C205.102 223.379 193.461 235.02 179.152 235.02C164.844 235.02 153.199 223.379 153.199 209.07ZM345.207 327.801C326.828 359.574 292.633 379.309 255.965 379.309C219.227 379.309 184.996 359.516 166.637 327.656C162.5 320.477 164.965 311.305 172.145 307.172C179.32 303.031 188.492 305.5 192.629 312.676C205.648 335.273 229.918 349.309 255.965 349.309C281.961 349.309 306.203 335.312 319.238 312.781C323.387 305.609 332.562 303.16 339.734 307.309C346.906 311.453 349.355 320.633 345.207 327.801ZM332.707 235.02C318.395 235.02 306.754 223.379 306.754 209.07C306.754 194.762 318.395 183.121 332.707 183.121C347.012 183.121 358.652 194.762 358.652 209.07C358.656 223.379 347.012 235.02 332.707 235.02Z" fill="#CAC6EB"/>
</g>
<defs>
<clipPath id="clip0">
<rect width="512" height="512" fill="white"/>
</clipPath>
</defs>
</svg>
